<mxfile host="app.diagrams.net" agent="Mozilla/5.0 (Windows NT 10.0; Win64; x64) AppleWebKit/537.36 (KHTML, like Gecko) Chrome/130.0.0.0 Safari/537.36" version="24.8.4">
  <diagram name="Página-1" id="Dkfz98QPsO50uzihjUfr">
    <mxGraphModel dx="2390" dy="1300" grid="1" gridSize="10" guides="1" tooltips="1" connect="1" arrows="1" fold="1" page="1" pageScale="1" pageWidth="827" pageHeight="1169" math="0" shadow="0">
      <root>
        <mxCell id="0" />
        <mxCell id="1" parent="0" />
        <mxCell id="_oYuPYcXtSC6n1coLC5R-1" value="Cliente" style="swimlane;whiteSpace=wrap;html=1;" parent="1" vertex="1">
          <mxGeometry x="50" y="120" width="280" height="1310" as="geometry" />
        </mxCell>
        <mxCell id="_oYuPYcXtSC6n1coLC5R-2" value="" style="ellipse;html=1;shape=startState;fillColor=#000000;strokeColor=#ff0000;" parent="_oYuPYcXtSC6n1coLC5R-1" vertex="1">
          <mxGeometry x="85" y="30" width="30" height="30" as="geometry" />
        </mxCell>
        <mxCell id="_oYuPYcXtSC6n1coLC5R-9" value="Fazer login no aplicativo" style="html=1;whiteSpace=wrap;" parent="_oYuPYcXtSC6n1coLC5R-1" vertex="1">
          <mxGeometry x="45" y="80" width="110" height="50" as="geometry" />
        </mxCell>
        <mxCell id="_oYuPYcXtSC6n1coLC5R-14" value="Escolher a pizza" style="html=1;whiteSpace=wrap;" parent="_oYuPYcXtSC6n1coLC5R-1" vertex="1">
          <mxGeometry x="45" y="180.0000000000001" width="110" height="50" as="geometry" />
        </mxCell>
        <mxCell id="_oYuPYcXtSC6n1coLC5R-19" value="Fazer pedido" style="html=1;whiteSpace=wrap;" parent="_oYuPYcXtSC6n1coLC5R-1" vertex="1">
          <mxGeometry x="45" y="340" width="110" height="50" as="geometry" />
        </mxCell>
        <mxCell id="_oYuPYcXtSC6n1coLC5R-21" value="" style="shape=link;html=1;rounded=0;width=-0.76923076923077;" parent="_oYuPYcXtSC6n1coLC5R-1" edge="1">
          <mxGeometry width="100" relative="1" as="geometry">
            <mxPoint x="61" y="460" as="sourcePoint" />
            <mxPoint x="161" y="460" as="targetPoint" />
          </mxGeometry>
        </mxCell>
        <mxCell id="_oYuPYcXtSC6n1coLC5R-23" value="Pagar com pix" style="html=1;whiteSpace=wrap;" parent="_oYuPYcXtSC6n1coLC5R-1" vertex="1">
          <mxGeometry x="125" y="490" width="110" height="50" as="geometry" />
        </mxCell>
        <mxCell id="_oYuPYcXtSC6n1coLC5R-25" value="Pagar com cartão" style="html=1;whiteSpace=wrap;" parent="_oYuPYcXtSC6n1coLC5R-1" vertex="1">
          <mxGeometry x="-10" y="490" width="110" height="50" as="geometry" />
        </mxCell>
        <mxCell id="_oYuPYcXtSC6n1coLC5R-20" value="" style="endArrow=open;endFill=1;endSize=12;html=1;rounded=0;exitX=0.5;exitY=1;exitDx=0;exitDy=0;" parent="_oYuPYcXtSC6n1coLC5R-1" source="_oYuPYcXtSC6n1coLC5R-19" edge="1">
          <mxGeometry width="160" relative="1" as="geometry">
            <mxPoint x="205" y="440" as="sourcePoint" />
            <mxPoint x="110" y="460" as="targetPoint" />
          </mxGeometry>
        </mxCell>
        <mxCell id="_oYuPYcXtSC6n1coLC5R-22" value="" style="endArrow=open;endFill=1;endSize=12;html=1;rounded=0;" parent="_oYuPYcXtSC6n1coLC5R-1" target="_oYuPYcXtSC6n1coLC5R-23" edge="1">
          <mxGeometry width="160" relative="1" as="geometry">
            <mxPoint x="115" y="460" as="sourcePoint" />
            <mxPoint x="175" y="490" as="targetPoint" />
          </mxGeometry>
        </mxCell>
        <mxCell id="_oYuPYcXtSC6n1coLC5R-24" value="" style="endArrow=open;endFill=1;endSize=12;html=1;rounded=0;" parent="_oYuPYcXtSC6n1coLC5R-1" target="_oYuPYcXtSC6n1coLC5R-25" edge="1">
          <mxGeometry width="160" relative="1" as="geometry">
            <mxPoint x="105" y="460" as="sourcePoint" />
            <mxPoint x="115" y="490" as="targetPoint" />
          </mxGeometry>
        </mxCell>
        <mxCell id="9Q5H34ehvB3yNLyn3A-a-7" value="Selecionar endereço" style="rounded=0;whiteSpace=wrap;html=1;" vertex="1" parent="_oYuPYcXtSC6n1coLC5R-1">
          <mxGeometry x="40" y="260" width="120" height="60" as="geometry" />
        </mxCell>
        <mxCell id="_oYuPYcXtSC6n1coLC5R-18" value="" style="endArrow=open;endFill=1;endSize=12;html=1;rounded=0;exitX=0.468;exitY=1.046;exitDx=0;exitDy=0;exitPerimeter=0;" parent="_oYuPYcXtSC6n1coLC5R-1" source="_oYuPYcXtSC6n1coLC5R-14" target="9Q5H34ehvB3yNLyn3A-a-7" edge="1">
          <mxGeometry width="160" relative="1" as="geometry">
            <mxPoint x="210" y="330" as="sourcePoint" />
            <mxPoint x="96" y="290" as="targetPoint" />
          </mxGeometry>
        </mxCell>
        <mxCell id="9Q5H34ehvB3yNLyn3A-a-15" value="" style="shape=link;html=1;rounded=0;width=0;" edge="1" parent="_oYuPYcXtSC6n1coLC5R-1">
          <mxGeometry width="100" relative="1" as="geometry">
            <mxPoint x="110" y="610" as="sourcePoint" />
            <mxPoint x="210" y="610" as="targetPoint" />
          </mxGeometry>
        </mxCell>
        <mxCell id="9Q5H34ehvB3yNLyn3A-a-38" value="Receber a pizza" style="html=1;whiteSpace=wrap;" vertex="1" parent="_oYuPYcXtSC6n1coLC5R-1">
          <mxGeometry x="85" y="1095" width="110" height="50" as="geometry" />
        </mxCell>
        <mxCell id="_oYuPYcXtSC6n1coLC5R-5" value="" style="endArrow=open;endFill=1;endSize=12;html=1;rounded=0;exitX=0.501;exitY=0.912;exitDx=0;exitDy=0;exitPerimeter=0;" parent="1" source="_oYuPYcXtSC6n1coLC5R-2" edge="1">
          <mxGeometry width="160" relative="1" as="geometry">
            <mxPoint x="90" y="180" as="sourcePoint" />
            <mxPoint x="150" y="200" as="targetPoint" />
          </mxGeometry>
        </mxCell>
        <mxCell id="_oYuPYcXtSC6n1coLC5R-10" value="" style="endArrow=open;endFill=1;endSize=12;html=1;rounded=0;exitX=0.5;exitY=1;exitDx=0;exitDy=0;" parent="1" source="_oYuPYcXtSC6n1coLC5R-9" edge="1">
          <mxGeometry width="160" relative="1" as="geometry">
            <mxPoint x="130" y="290" as="sourcePoint" />
            <mxPoint x="380" y="290" as="targetPoint" />
            <Array as="points">
              <mxPoint x="150" y="290" />
            </Array>
          </mxGeometry>
        </mxCell>
        <mxCell id="_oYuPYcXtSC6n1coLC5R-15" value="Pizzaria" style="swimlane;whiteSpace=wrap;html=1;" parent="1" vertex="1">
          <mxGeometry x="530" y="120" width="200" height="920" as="geometry" />
        </mxCell>
        <mxCell id="9Q5H34ehvB3yNLyn3A-a-24" value="Preparar o pedido" style="html=1;whiteSpace=wrap;" vertex="1" parent="_oYuPYcXtSC6n1coLC5R-15">
          <mxGeometry x="40" y="775" width="110" height="50" as="geometry" />
        </mxCell>
        <mxCell id="9Q5H34ehvB3yNLyn3A-a-27" value="Entregar ao motoboy" style="html=1;whiteSpace=wrap;" vertex="1" parent="_oYuPYcXtSC6n1coLC5R-15">
          <mxGeometry x="40" y="870" width="110" height="50" as="geometry" />
        </mxCell>
        <mxCell id="9Q5H34ehvB3yNLyn3A-a-26" value="" style="endArrow=open;endFill=1;endSize=12;html=1;rounded=0;exitX=0.5;exitY=1;exitDx=0;exitDy=0;" edge="1" parent="_oYuPYcXtSC6n1coLC5R-15" source="9Q5H34ehvB3yNLyn3A-a-24" target="9Q5H34ehvB3yNLyn3A-a-27">
          <mxGeometry width="160" relative="1" as="geometry">
            <mxPoint x="150" y="690" as="sourcePoint" />
            <mxPoint x="95" y="880" as="targetPoint" />
            <Array as="points">
              <mxPoint x="95" y="830" />
              <mxPoint x="95" y="870" />
            </Array>
          </mxGeometry>
        </mxCell>
        <mxCell id="9Q5H34ehvB3yNLyn3A-a-1" value="Aplicativo" style="swimlane;whiteSpace=wrap;html=1;" vertex="1" parent="1">
          <mxGeometry x="330" y="120" width="200" height="920" as="geometry" />
        </mxCell>
        <mxCell id="9Q5H34ehvB3yNLyn3A-a-2" value="Login válido?" style="rhombus;whiteSpace=wrap;html=1;" vertex="1" parent="9Q5H34ehvB3yNLyn3A-a-1">
          <mxGeometry x="20" y="130" width="80" height="80" as="geometry" />
        </mxCell>
        <mxCell id="9Q5H34ehvB3yNLyn3A-a-9" value="Endereço válido?" style="rhombus;whiteSpace=wrap;html=1;" vertex="1" parent="9Q5H34ehvB3yNLyn3A-a-1">
          <mxGeometry x="20" y="250" width="80" height="80" as="geometry" />
        </mxCell>
        <mxCell id="_oYuPYcXtSC6n1coLC5R-28" value="Forma de pagamento selecionada?" style="rhombus;whiteSpace=wrap;html=1;" parent="9Q5H34ehvB3yNLyn3A-a-1" vertex="1">
          <mxGeometry x="50" y="590" width="80" height="80" as="geometry" />
        </mxCell>
        <mxCell id="9Q5H34ehvB3yNLyn3A-a-18" value="" style="ellipse;html=1;shape=endState;fillColor=#000000;strokeColor=#ff0000;" vertex="1" parent="9Q5H34ehvB3yNLyn3A-a-1">
          <mxGeometry x="160" y="615" width="30" height="30" as="geometry" />
        </mxCell>
        <mxCell id="9Q5H34ehvB3yNLyn3A-a-17" value="" style="endArrow=open;endFill=1;endSize=12;html=1;rounded=0;exitX=1;exitY=0.5;exitDx=0;exitDy=0;" edge="1" parent="9Q5H34ehvB3yNLyn3A-a-1" source="_oYuPYcXtSC6n1coLC5R-28" target="9Q5H34ehvB3yNLyn3A-a-18">
          <mxGeometry width="160" relative="1" as="geometry">
            <mxPoint x="120" y="430" as="sourcePoint" />
            <mxPoint x="160" y="630" as="targetPoint" />
          </mxGeometry>
        </mxCell>
        <mxCell id="9Q5H34ehvB3yNLyn3A-a-22" value="Enviar o pedido para a pizzaria" style="html=1;whiteSpace=wrap;" vertex="1" parent="9Q5H34ehvB3yNLyn3A-a-1">
          <mxGeometry x="35" y="710" width="110" height="50" as="geometry" />
        </mxCell>
        <mxCell id="9Q5H34ehvB3yNLyn3A-a-21" value="" style="endArrow=open;endFill=1;endSize=12;html=1;rounded=0;exitX=0.5;exitY=1;exitDx=0;exitDy=0;" edge="1" parent="9Q5H34ehvB3yNLyn3A-a-1" source="_oYuPYcXtSC6n1coLC5R-28" target="9Q5H34ehvB3yNLyn3A-a-22">
          <mxGeometry width="160" relative="1" as="geometry">
            <mxPoint x="93" y="680" as="sourcePoint" />
            <mxPoint x="90" y="700" as="targetPoint" />
          </mxGeometry>
        </mxCell>
        <mxCell id="9Q5H34ehvB3yNLyn3A-a-4" value="" style="endArrow=open;endFill=1;endSize=12;html=1;rounded=0;exitX=1;exitY=0.5;exitDx=0;exitDy=0;" edge="1" parent="1" source="9Q5H34ehvB3yNLyn3A-a-2" target="9Q5H34ehvB3yNLyn3A-a-5">
          <mxGeometry width="160" relative="1" as="geometry">
            <mxPoint x="330" y="300" as="sourcePoint" />
            <mxPoint x="470" y="290" as="targetPoint" />
          </mxGeometry>
        </mxCell>
        <mxCell id="9Q5H34ehvB3yNLyn3A-a-5" value="" style="ellipse;html=1;shape=endState;fillColor=#000000;strokeColor=#ff0000;" vertex="1" parent="1">
          <mxGeometry x="455" y="275" width="30" height="30" as="geometry" />
        </mxCell>
        <mxCell id="9Q5H34ehvB3yNLyn3A-a-6" value="" style="endArrow=open;endFill=1;endSize=12;html=1;rounded=0;exitX=0.5;exitY=1;exitDx=0;exitDy=0;" edge="1" parent="1" source="9Q5H34ehvB3yNLyn3A-a-2">
          <mxGeometry width="160" relative="1" as="geometry">
            <mxPoint x="330" y="300" as="sourcePoint" />
            <mxPoint x="210" y="330" as="targetPoint" />
          </mxGeometry>
        </mxCell>
        <mxCell id="9Q5H34ehvB3yNLyn3A-a-8" value="" style="endArrow=open;endFill=1;endSize=12;html=1;rounded=0;exitX=1;exitY=0.5;exitDx=0;exitDy=0;" edge="1" parent="1" source="9Q5H34ehvB3yNLyn3A-a-7" target="9Q5H34ehvB3yNLyn3A-a-9">
          <mxGeometry width="160" relative="1" as="geometry">
            <mxPoint x="320" y="480" as="sourcePoint" />
            <mxPoint x="360" y="410" as="targetPoint" />
          </mxGeometry>
        </mxCell>
        <mxCell id="9Q5H34ehvB3yNLyn3A-a-10" value="" style="endArrow=open;endFill=1;endSize=12;html=1;rounded=0;exitX=1;exitY=0.5;exitDx=0;exitDy=0;" edge="1" parent="1" source="9Q5H34ehvB3yNLyn3A-a-9" target="9Q5H34ehvB3yNLyn3A-a-11">
          <mxGeometry width="160" relative="1" as="geometry">
            <mxPoint x="320" y="480" as="sourcePoint" />
            <mxPoint x="470" y="410" as="targetPoint" />
          </mxGeometry>
        </mxCell>
        <mxCell id="9Q5H34ehvB3yNLyn3A-a-11" value="" style="ellipse;html=1;shape=endState;fillColor=#000000;strokeColor=#ff0000;" vertex="1" parent="1">
          <mxGeometry x="455" y="395" width="30" height="30" as="geometry" />
        </mxCell>
        <mxCell id="9Q5H34ehvB3yNLyn3A-a-12" value="" style="endArrow=open;endFill=1;endSize=12;html=1;rounded=0;exitX=0.5;exitY=1;exitDx=0;exitDy=0;entryX=1;entryY=0.5;entryDx=0;entryDy=0;" edge="1" parent="1" source="9Q5H34ehvB3yNLyn3A-a-9" target="_oYuPYcXtSC6n1coLC5R-19">
          <mxGeometry width="160" relative="1" as="geometry">
            <mxPoint x="390" y="460" as="sourcePoint" />
            <mxPoint x="390" y="510" as="targetPoint" />
            <Array as="points">
              <mxPoint x="390" y="490" />
            </Array>
          </mxGeometry>
        </mxCell>
        <mxCell id="9Q5H34ehvB3yNLyn3A-a-13" value="" style="endArrow=open;endFill=1;endSize=12;html=1;rounded=0;exitX=0.75;exitY=1;exitDx=0;exitDy=0;" edge="1" parent="1" source="_oYuPYcXtSC6n1coLC5R-25">
          <mxGeometry width="160" relative="1" as="geometry">
            <mxPoint x="320" y="480" as="sourcePoint" />
            <mxPoint x="210" y="730" as="targetPoint" />
          </mxGeometry>
        </mxCell>
        <mxCell id="9Q5H34ehvB3yNLyn3A-a-14" value="" style="endArrow=open;endFill=1;endSize=12;html=1;rounded=0;exitX=0.5;exitY=1;exitDx=0;exitDy=0;" edge="1" parent="1" source="_oYuPYcXtSC6n1coLC5R-23">
          <mxGeometry width="160" relative="1" as="geometry">
            <mxPoint x="320" y="480" as="sourcePoint" />
            <mxPoint x="220" y="730" as="targetPoint" />
          </mxGeometry>
        </mxCell>
        <mxCell id="9Q5H34ehvB3yNLyn3A-a-16" value="" style="endArrow=open;endFill=1;endSize=12;html=1;rounded=0;entryX=0;entryY=0.5;entryDx=0;entryDy=0;" edge="1" parent="1" target="_oYuPYcXtSC6n1coLC5R-28">
          <mxGeometry width="160" relative="1" as="geometry">
            <mxPoint x="210" y="730" as="sourcePoint" />
            <mxPoint x="450" y="670" as="targetPoint" />
          </mxGeometry>
        </mxCell>
        <mxCell id="9Q5H34ehvB3yNLyn3A-a-23" value="" style="endArrow=open;endFill=1;endSize=12;html=1;rounded=0;exitX=0.5;exitY=1;exitDx=0;exitDy=0;" edge="1" parent="1" source="9Q5H34ehvB3yNLyn3A-a-22" target="9Q5H34ehvB3yNLyn3A-a-24">
          <mxGeometry width="160" relative="1" as="geometry">
            <mxPoint x="450" y="820" as="sourcePoint" />
            <mxPoint x="580" y="920" as="targetPoint" />
            <Array as="points">
              <mxPoint x="420" y="920" />
            </Array>
          </mxGeometry>
        </mxCell>
        <mxCell id="9Q5H34ehvB3yNLyn3A-a-25" value="Motoboy" style="swimlane;whiteSpace=wrap;html=1;" vertex="1" parent="1">
          <mxGeometry x="730" y="120" width="200" height="1190" as="geometry" />
        </mxCell>
        <mxCell id="9Q5H34ehvB3yNLyn3A-a-29" value="Receber encomenda" style="html=1;whiteSpace=wrap;" vertex="1" parent="9Q5H34ehvB3yNLyn3A-a-25">
          <mxGeometry x="40" y="870" width="110" height="50" as="geometry" />
        </mxCell>
        <mxCell id="9Q5H34ehvB3yNLyn3A-a-32" value="Fazer a entrega da pizza" style="html=1;whiteSpace=wrap;" vertex="1" parent="9Q5H34ehvB3yNLyn3A-a-25">
          <mxGeometry x="40" y="960" width="110" height="50" as="geometry" />
        </mxCell>
        <mxCell id="9Q5H34ehvB3yNLyn3A-a-31" value="" style="endArrow=open;endFill=1;endSize=12;html=1;rounded=0;exitX=0.5;exitY=1;exitDx=0;exitDy=0;" edge="1" parent="9Q5H34ehvB3yNLyn3A-a-25" source="9Q5H34ehvB3yNLyn3A-a-29" target="9Q5H34ehvB3yNLyn3A-a-32">
          <mxGeometry width="160" relative="1" as="geometry">
            <mxPoint x="60" y="950" as="sourcePoint" />
            <mxPoint x="95" y="960" as="targetPoint" />
          </mxGeometry>
        </mxCell>
        <mxCell id="9Q5H34ehvB3yNLyn3A-a-34" value="Recebeu o pagamento?" style="rhombus;whiteSpace=wrap;html=1;" vertex="1" parent="9Q5H34ehvB3yNLyn3A-a-25">
          <mxGeometry x="55" y="1040" width="80" height="80" as="geometry" />
        </mxCell>
        <mxCell id="9Q5H34ehvB3yNLyn3A-a-33" value="" style="endArrow=open;endFill=1;endSize=12;html=1;rounded=0;exitX=0.5;exitY=1;exitDx=0;exitDy=0;" edge="1" parent="9Q5H34ehvB3yNLyn3A-a-25" source="9Q5H34ehvB3yNLyn3A-a-32" target="9Q5H34ehvB3yNLyn3A-a-34">
          <mxGeometry width="160" relative="1" as="geometry">
            <mxPoint x="60" y="950" as="sourcePoint" />
            <mxPoint x="95" y="1060" as="targetPoint" />
          </mxGeometry>
        </mxCell>
        <mxCell id="9Q5H34ehvB3yNLyn3A-a-36" value="" style="ellipse;html=1;shape=endState;fillColor=#000000;strokeColor=#ff0000;" vertex="1" parent="9Q5H34ehvB3yNLyn3A-a-25">
          <mxGeometry x="170" y="1065" width="30" height="30" as="geometry" />
        </mxCell>
        <mxCell id="9Q5H34ehvB3yNLyn3A-a-35" value="" style="endArrow=open;endFill=1;endSize=12;html=1;rounded=0;exitX=1;exitY=0.5;exitDx=0;exitDy=0;" edge="1" parent="9Q5H34ehvB3yNLyn3A-a-25" source="9Q5H34ehvB3yNLyn3A-a-34" target="9Q5H34ehvB3yNLyn3A-a-36">
          <mxGeometry width="160" relative="1" as="geometry">
            <mxPoint x="60" y="950" as="sourcePoint" />
            <mxPoint x="170" y="1080" as="targetPoint" />
          </mxGeometry>
        </mxCell>
        <mxCell id="9Q5H34ehvB3yNLyn3A-a-28" value="" style="endArrow=open;endFill=1;endSize=12;html=1;rounded=0;exitX=1;exitY=0.5;exitDx=0;exitDy=0;" edge="1" parent="1" source="9Q5H34ehvB3yNLyn3A-a-27" target="9Q5H34ehvB3yNLyn3A-a-29">
          <mxGeometry width="160" relative="1" as="geometry">
            <mxPoint x="790" y="870" as="sourcePoint" />
            <mxPoint x="770" y="1015" as="targetPoint" />
          </mxGeometry>
        </mxCell>
        <mxCell id="9Q5H34ehvB3yNLyn3A-a-37" value="" style="endArrow=open;endFill=1;endSize=12;html=1;rounded=0;exitX=0;exitY=0.5;exitDx=0;exitDy=0;" edge="1" parent="1" source="9Q5H34ehvB3yNLyn3A-a-34" target="9Q5H34ehvB3yNLyn3A-a-38">
          <mxGeometry width="160" relative="1" as="geometry">
            <mxPoint x="1180" y="1170" as="sourcePoint" />
            <mxPoint x="300" y="1240" as="targetPoint" />
            <Array as="points">
              <mxPoint x="785" y="1240" />
            </Array>
          </mxGeometry>
        </mxCell>
        <mxCell id="9Q5H34ehvB3yNLyn3A-a-40" value="" style="endArrow=open;endFill=1;endSize=12;html=1;rounded=0;exitX=0.5;exitY=1;exitDx=0;exitDy=0;" edge="1" parent="1" source="9Q5H34ehvB3yNLyn3A-a-38" target="9Q5H34ehvB3yNLyn3A-a-41">
          <mxGeometry width="160" relative="1" as="geometry">
            <mxPoint x="450" y="1260" as="sourcePoint" />
            <mxPoint x="190" y="1310" as="targetPoint" />
          </mxGeometry>
        </mxCell>
        <mxCell id="9Q5H34ehvB3yNLyn3A-a-41" value="" style="ellipse;html=1;shape=endState;fillColor=#000000;strokeColor=#ff0000;" vertex="1" parent="1">
          <mxGeometry x="175" y="1295" width="30" height="30" as="geometry" />
        </mxCell>
      </root>
    </mxGraphModel>
  </diagram>
</mxfile>
